inDegrees=no
num_controls=7
num_derivatives=13
num_iterations=96
num_multipliers=7
num_parameters=0
num_slacks=7
num_states=26
objective=5.458252
objective_accelerations=0.798667
objective_balance=0.025469
objective_effort=0.190131
objective_height=4.369879
objective_ligament=0.074106
solver_duration=1157.596163
status=Solve_Succeeded
success=true
DataType=double
version=3
OpenSimVersion=4.4-2022-07-23-0e9fedc
endheader
time	/jointset/ground_pelvis/pelvis_tilt/value	/jointset/ground_pelvis/pelvis_tx/value	/jointset/ground_pelvis/pelvis_ty/value	/jointset/hip_l/hip_flexion_l/value	/jointset/hip_l/hip_adduction_l/value	/jointset/hip_l/hip_rotation_l/value	/jointset/back/lumbar_extension/value	/jointset/patellofemoral_l/patellar_flexion_l/value	/jointset/knee_l/knee_flexion_l/value	/jointset/knee_l/knee_adduction_l/value	/jointset/knee_l/knee_rotation_l/value	/jointset/ankle_l/ankle_angle_l/value	/jointset/subtalar_l/subtalar_angle_l/value	/jointset/ground_pelvis/pelvis_tilt/speed	/jointset/ground_pelvis/pelvis_tx/speed	/jointset/ground_pelvis/pelvis_ty/speed	/jointset/hip_l/hip_flexion_l/speed	/jointset/hip_l/hip_adduction_l/speed	/jointset/hip_l/hip_rotation_l/speed	/jointset/back/lumbar_extension/speed	/jointset/patellofemoral_l/patellar_flexion_l/speed	/jointset/knee_l/knee_flexion_l/speed	/jointset/knee_l/knee_adduction_l/speed	/jointset/knee_l/knee_rotation_l/speed	/jointset/ankle_l/ankle_angle_l/speed	/jointset/subtalar_l/subtalar_angle_l/speed	/forceset/tau_hip_flexion_l	/forceset/tau_hip_adduction_l	/forceset/tau_hip_rotation_l	/forceset/tau_knee_flexion_l	/forceset/tau_ankle_angle_l	/forceset/tau_subtalar_angle_l	/forceset/tau_lumbar_extension	lambda_cid13_p0	lambda_cid13_p1	lambda_cid13_p2	lambda_cid13_p3	lambda_cid13_p4	lambda_cid13_p5	lambda_cid14_p0	/jointset/ground_pelvis/pelvis_tilt/accel	/jointset/ground_pelvis/pelvis_tx/accel	/jointset/ground_pelvis/pelvis_ty/accel	/jointset/hip_l/hip_flexion_l/accel	/jointset/hip_l/hip_adduction_l/accel	/jointset/hip_l/hip_rotation_l/accel	/jointset/back/lumbar_extension/accel	/jointset/patellofemoral_l/patellar_flexion_l/accel	/jointset/knee_l/knee_flexion_l/accel	/jointset/knee_l/knee_adduction_l/accel	/jointset/knee_l/knee_rotation_l/accel	/jointset/ankle_l/ankle_angle_l/accel	/jointset/subtalar_l/subtalar_angle_l/accel	gamma_cid13_p0	gamma_cid13_p1	gamma_cid13_p2	gamma_cid13_p3	gamma_cid13_p4	gamma_cid13_p5	gamma_cid14_p0
1	-0.5140009911207851	-0.004437883621028134	0.5748378608112276	1.802120033377402	-0.3442702264256105	0.1470509077962958	-0.4363020691061492	1.544820139461605	1.544820139461592	0.06546172732057233	-0.1744901603609173	0.4344415198257388	0.2525097217821557	-0.1462804726983305	-0.005370959690543072	0.0339870166850425	0.03217760991281067	0.000483944177546021	-0.05405862596824554	6.795077860119602e-06	-0.1595232218445183	-0.1595232218444984	-0.009614803033559454	-1.601219745710111e-05	-0.0598546936254534	-0.03588233365668011	-0.2712125742233191	0.04030485471876655	-0.01381275008103778	-0.2691614182100265	-0.0618637557812757	0.008391538812116715	0.2263561137755219	-52.62744112135957	10.24203847667955	-7.250190713179959	9.365980607096278	-547.923600364409	-61.30243707271201	-0.02354372178269513	1.715458478527219	0.1637308477725798	2.11008976820702	-6.994651412266505	-0.2505153758203094	-1.607721549355675	-0.02621011484092058	-5.734568865734217	-5.734568865734439	-0.9050031930929009	-0.0337986074465614	-0.958674530840753	-0.9794406258295877	-2.41855566001489e-09	-1.567470484100806e-07	-4.528256750589424e-08	-1.545219610620276e-08	-6.824915216635715e-09	-1.993634808796697e-07	2.356813925285633e-09
1.01	-0.5153787430956983	-0.004483416496207456	0.5752830007046726	1.802093210319503	-0.3442771615488984	0.1464320003694581	-0.4363024012788189	1.54293861515191	1.542938615151898	0.06531938247848608	-0.174490208317872	0.4337950223515987	0.2521031816690723	-0.1292583505274034	-0.003729853260274878	0.05502977445602671	-0.03752611483969742	-0.001864959002113277	-0.06971100029126427	-7.699102136298131e-05	-0.2167719042077635	-0.2167719042077672	-0.01884968472384322	7.753388786179024e-06	-0.06945942009813762	-0.04541712075518035	-0.2715549256429541	0.04032811583408251	-0.01382589074266296	-0.2682065382957169	-0.06209584531773855	0.008435585221964638	0.2265055243905964	-52.65903754306765	10.18641386843171	-7.193317201971361	9.282385461730566	-547.6700918527747	-61.19188529098236	-0.02356100087265223	1.697324874892377	0.1651598019770909	2.099688322505071	-6.955817042306498	-0.226165646114083	-1.54222727110327	-2.706720817182524e-05	-5.718558066302192	-5.718558066305825	-0.9320738161442531	0.02063745139439866	-0.9635743244606262	-0.9391725597934345	-2.896808515645658e-09	-2.003812975138185e-07	-6.818244552804363e-08	-2.516153318742857e-08	-1.158651743395858e-08	-2.460987382217742e-07	2.63511888222107e-09
1.02	-0.5165859266911896	-0.004512366454820277	0.5759382320840204	1.801369833206946	-0.3443074032753954	0.1456569228198727	-0.4363036841541576	1.540484895989646	1.54048489598963	0.06508482018796796	-0.174489983957057	0.4330520370889577	0.2516015587234169	-0.1121667968158016	-0.002054376377243139	0.07600531386545643	-0.1071332010147579	-0.004177376464765836	-0.08529265050743164	-0.0001833455103594418	-0.2739621923583032	-0.2739621923583307	-0.0280582927800677	3.845136440328824e-05	-0.07915225132994257	-0.05489890017101213	-0.2718972770627289	0.04035137694921818	-0.01383903140332091	-0.2672516583813807	-0.06232793485421639	0.008479631631488717	0.2266549350055097	-52.69457769085624	10.13014608783602	-7.134817454073143	9.19986729260137	-547.525646304673	-61.07811200208818	-0.02357984802587876	1.729344786661828	0.1706049383254603	2.096646095896156	-6.97532369677699	-0.2432182324191031	-1.593576727985418	-0.03072379279354064	-5.722890023193166	-5.722890023193405	-0.8997484662811841	-0.03241212957194818	-0.9762954826645993	-0.9688390892959245	-3.46470235317892e-09	-2.427075391820885e-07	-8.990885467800195e-08	-3.438215995995364e-08	-1.62441289124218e-08	-2.895910034110946e-07	2.668477179458404e-09
1.03	-0.517621855247327	-0.004524340843869541	0.5768027905254997	1.799951062083341	-0.34436056895824	0.1447264090729616	-0.4363061000558313	1.537459685548685	1.537459685548703	0.06475836280642308	-0.1744894389743519	0.4322116392013016	0.2510054094830916	-0.0950086615620258	-0.0003298976608249226	0.09688599667454036	-0.176585540265227	-0.00644770412881335	-0.1007928152246539	-0.0002988566235974602	-0.3310582537417888	-0.3310582537417687	-0.03722558379373564	7.075433934675655e-05	-0.08894607945960892	-0.06431895633655144	-0.2719260459982311	0.04034799120384683	-0.01381794076781387	-0.2661892404547483	-0.06232964762502662	0.008577064277247326	0.2266147034800447	-52.62430599485163	10.02539998709814	-7.060861069429064	9.019817220574716	-547.0569348106375	-61.00809500149322	-0.02360516439078687	1.710584957175089	0.1749511291236722	2.080718501726706	-6.924867510842527	-0.2177128803347655	-1.525659684586872	-0.001818033870391569	-5.699718422256802	-5.699718422249709	-0.924102325011057	0.0210426382242186	-0.9837534181149452	-0.9267313941884954	-4.033510894609148e-09	-2.850204338357108e-07	-1.11623289655795e-07	-4.359779989259401e-08	-2.090067926089665e-08	-3.330501768437539e-07	2.699336020984531e-09
1.04	-0.5184858950384099	-0.004518754087590929	0.5778755436207333	1.79783883187298	-0.3444361924870954	0.1436414090106644	-0.4363096417211306	1.533864163648624	1.53386416364862	0.06434045593335487	-0.1744885727364657	0.4312727376443552	0.2503154311783097	-0.07778904381067782	0.001457852688332046	0.1176442446161257	-0.2458250183821454	-0.008668945670358627	-0.1161899135817206	-0.0004084982680788075	-0.3880244841784878	-0.3880244841784191	-0.04634819105145602	0.0001027024021471693	-0.09885298518915205	-0.07366471306231459	-0.271954814933266	0.04034460545848589	-0.01379685013281397	-0.2651268225281537	-0.06233136039590876	0.008674496922986795	0.2265744719550864	-52.55823985967975	9.920114618247116	-6.985361347947412	8.841598592944129	-546.6981104803107	-60.93569131911507	-0.02363217377680057	1.741641286175994	0.1832592648733752	2.072159122396462	-6.932751470066879	-0.2334010079188301	-1.572963455954359	-0.02954989903897371	-5.696923833835863	-5.696923833835916	-0.8908117150918318	-0.03248311200082841	-0.9989110026396778	-0.9539792013408075	-4.591348428121369e-09	-3.244122270064127e-07	-1.314355533624809e-07	-5.209104206932377e-08	-2.521786021899866e-08	-3.715342168635679e-07	2.504560720748239e-09
1.05	-0.5191773268727926	-0.004494930647241126	0.5791551852305722	1.7950353503259	-0.3445337651510543	0.1424029223568947	-0.436314314242045	1.529699750243435	1.529699750243395	0.0638316654198916	-0.1744874090411481	0.4302341646073944	0.2495323979182907	-0.06047753446896708	0.003321619822704291	0.1382555574649229	-0.3148278474580349	-0.01083479082065512	-0.1314879865374605	-0.0005306687656102191	-0.4448243425699396	-0.4448243425698303	-0.05539511972356282	0.0001308473377300275	-0.1088835980159058	-0.08292477159643005	-0.2717170608910158	0.04035532200721811	-0.01374564496960842	-0.2638973561245618	-0.062194115453811	0.008809192875474813	0.2263707453611255	-52.41944448419388	9.778400576883971	-6.895474967580579	8.60353916399777	-546.0202624100067	-60.87569731873832	-0.02366575125328341	1.728872343685061	0.1901409063506243	2.05133343476492	-6.877533974775085	-0.2065304309283851	-1.505335449585743	-0.004250036417282737	-5.666439156962024	-5.666439156956387	-0.9094450058817086	0.02053228671462061	-1.008450629666151	-0.9093679720951565	-5.148843117636152e-09	-3.637127357557732e-07	-1.511883742169447e-07	-6.056170931618133e-08	-2.952443588365152e-08	-4.098627839642305e-07	2.302734353581872e-09
